<?xml version="1.0" encoding="UTF-8"?>
<svg width="24px" height="24px" viewBox="0 0 24 24" version="1.1" xmlns="http://www.w3.org/2000/svg">
    <g stroke="none" stroke-width="1" fill="none" fill-rule="evenodd">
        <path d="M12,2 C16.418278,2 20,5.581722 20,10 C20,12.8133333 18.5,14.6 17,16 C16.4666667,16.5333333 16,17 16,18 L16,19 C16,19.5522847 15.5522847,20 15,20 L9,20 C8.44771525,20 8,19.5522847 8,19 L8,18 C8,17 7.53333333,16.5333333 7,16 C5.5,14.6 4,12.8133333 4,10 C4,5.581722 7.581722,2 12,2 Z M12,4 C8.6862915,4 6,6.6862915 6,10 C6,12.12 7.2,13.4666667 8.5,14.6666667 C9.23333333,15.3333333 10,16.3333333 10,18 L14,18 C14,16.3333333 14.7666667,15.3333333 15.5,14.6666667 C16.8,13.4666667 18,12.12 18,10 C18,6.6862915 15.3137085,4 12,4 Z" fill="#635BFF" fill-rule="nonzero"></path>
        <rect fill="#635BFF" x="10" y="21" width="4" height="1" rx="0.5"></rect>
    </g>
</svg> 